<?xml version="1.0" encoding="UTF-8"?>
<svg xmlns="http://www.w3.org/2000/svg" version="1.1" viewBox="0 0 1920 69">
  <defs>
    <style>
      .cls-1 {
        fill: #ec9007;
      }
    </style>
  </defs>
  <!-- Generator: Adobe Illustrator 28.7.1, SVG Export Plug-In . SVG Version: 1.2.0 Build 142)  -->
  <g>
    <g id="Layer_1">
      <g id="Layer_1-2" data-name="Layer_1">
        <path class="cls-1" d="M987.6,34.7l-21.8,3c-1,0-1.7.9-1.8,1.8l-3.7,29.3c0,.2-.4.2-.4,0l-3.7-29.3c0-1-.9-1.7-1.8-1.8l-21.8-3c-.2,0-.2-.4,0-.4l21.8-3c1-.1,1.7-.9,1.8-1.9l3.7-29.3c0-.2.4-.2.4,0l3.7,29.3c0,1,.9,1.7,1.8,1.9l21.8,3c.2,0,.2.4,0,.4h0Z"/>
        <path class="cls-1" d="M0,33h909.6c.8,0,1.5.7,1.5,1.5h0c0,.9-.7,1.6-1.5,1.6H0v-3.1h0Z"/>
        <path class="cls-1" d="M1920,36.1h-909.6c-.8,0-1.5-.7-1.5-1.5h0c0-.9.7-1.6,1.5-1.6h909.6v3.1h0Z"/>
      </g>
    </g>
  </g>
</svg>