<?xml version="1.0" encoding="UTF-8"?>
<svg id="Layer_1" xmlns="http://www.w3.org/2000/svg" viewBox="0 0 1920 69.03">
  <defs>
    <style>
      .cls-1 {
        fill: #f2a241;
      }
    </style>
  </defs>
  <path class="cls-1" d="M987.56,34.72l-21.78,2.96c-.96.13-1.71.89-1.84,1.85l-3.74,29.32c-.03.24-.38.24-.41,0l-3.74-29.32c-.12-.96-.88-1.72-1.84-1.85l-21.78-2.96c-.24-.03-.24-.38,0-.41l21.78-2.96c.96-.13,1.71-.89,1.84-1.85l3.74-29.32c.03-.24.38-.24.41,0l3.74,29.32c.12.96.88,1.72,1.84,1.85l21.79,2.96c.24.03.24.38,0,.41Z"/>
  <path class="cls-1" d="M0,32.96h909.59c.84,0,1.51.68,1.51,1.51v.09c0,.84-.68,1.51-1.51,1.51H0v-3.12H0Z"/>
  <path class="cls-1" d="M1008.9,32.96h909.59c.84,0,1.51.68,1.51,1.51v.09c0,.84-.68,1.51-1.51,1.51h-909.59v-3.12h0Z" transform="translate(2928.9 69.03) rotate(-180)"/>
</svg>