<?xml version="1.0" encoding="UTF-8"?>
<svg id="Layer_1" xmlns="http://www.w3.org/2000/svg" viewBox="0 0 731.33 193.71">
  <defs>
    <style>
      .cls-1 {
        fill: #ff9e1c;
      }

      .cls-2 {
        fill: #181716;
      }
    </style>
  </defs>
  <path class="cls-2" d="M0,113.57v-56.94h42.83v11.55H14.85v11.06h26.32v11.55H14.85v11.22h28.8v11.55H0Z"/>
  <path class="cls-2" d="M99.81,113.57v-23.93c0-8.2.05-14.22.16-18.07-.99,5.72-2.31,11.75-3.96,18.07l-6.27,23.93h-15.27l-6.35-23.93c-1.71-6.33-3-12.35-3.88-18.07.11,3.85.17,9.88.17,18.07v23.93h-14.85v-56.94h23.19l9.65,42.5,9.65-42.5h22.61v56.94h-14.85Z"/>
  <path class="cls-2" d="M163.08,62.53c3.02,3.11,4.54,7.3,4.54,12.58s-1.51,9.48-4.54,12.58c-3.03,3.11-6.77,4.94-11.22,5.49-2.53.28-5.5.41-8.91.41h-6.6v19.97h-14.85v-56.94h21.46c3.41,0,6.38.14,8.91.41,4.46.55,8.2,2.38,11.22,5.49ZM142.12,82.05c1.93,0,3.25-.03,3.96-.08,1.93-.17,3.41-.83,4.45-1.98,1.05-1.16,1.57-2.78,1.57-4.87s-.52-3.71-1.57-4.87c-1.05-1.16-2.53-1.82-4.45-1.98-.72-.05-2.04-.08-3.96-.08h-5.78v13.86h5.78Z"/>
  <path class="cls-2" d="M171.46,113.57v-56.94h42.83v11.55h-27.97v11.06h26.32v11.55h-26.32v11.22h28.8v11.55h-43.65Z"/>
  <path class="cls-2" d="M266.98,107.76c.66,2.17,1.57,4.11,2.72,5.82h-16.18c-1.32-4.07-2.2-7.87-2.64-11.39-.39-3.14-1.18-5.59-2.39-7.34-1.21-1.76-2.75-2.7-4.62-2.81-1.1-.05-2.67-.08-4.7-.08h-3.3v21.62h-14.85v-56.94h22.61c3.41,0,6.38.14,8.91.41,4.57.55,8.28,2.03,11.14,4.46,2.86,2.42,4.29,5.97,4.29,10.64,0,7.21-3.82,11.94-11.47,14.19,2.86,1.05,4.95,2.63,6.27,4.74,1.32,2.12,2.2,4.99,2.64,8.62.38,3.19.91,5.87,1.57,8.05ZM241.23,81.23c1.93,0,3.24-.03,3.96-.08,2.2-.17,3.96-.73,5.28-1.69,1.32-.96,1.98-2.54,1.98-4.74s-.61-3.78-1.82-4.75c-1.21-.96-2.89-1.53-5.03-1.69-.71-.05-2.03-.08-3.96-.08h-5.78v13.04h5.37Z"/>
  <path class="cls-2" d="M315.43,59.07c4.37,2.39,7.76,5.82,10.15,10.27,2.39,4.45,3.59,9.71,3.59,15.76s-1.2,11.24-3.59,15.72c-2.39,4.49-5.78,7.92-10.15,10.31-4.37,2.39-9.5,3.59-15.39,3.59s-11.02-1.2-15.39-3.59-7.76-5.83-10.15-10.31c-2.39-4.48-3.59-9.72-3.59-15.72s1.2-11.31,3.59-15.76c2.39-4.46,5.78-7.88,10.15-10.27,4.37-2.39,9.5-3.59,15.39-3.59s11.02,1.2,15.39,3.59ZM289.81,98.92c2.48,3.27,5.89,4.91,10.23,4.91s7.76-1.64,10.23-4.91c2.47-3.27,3.71-7.88,3.71-13.82s-1.24-10.62-3.71-13.86c-2.48-3.25-5.89-4.87-10.23-4.87s-7.76,1.62-10.23,4.87-3.71,7.87-3.71,13.86,1.24,10.55,3.71,13.82Z"/>
  <path class="cls-2" d="M379.71,107.76c.66,2.17,1.57,4.11,2.72,5.82h-16.17c-1.32-4.07-2.2-7.87-2.64-11.39-.39-3.14-1.18-5.59-2.39-7.34-1.21-1.76-2.75-2.7-4.62-2.81-1.1-.05-2.67-.08-4.71-.08h-3.3v21.62h-14.85v-56.94h22.61c3.41,0,6.38.14,8.91.41,4.57.55,8.28,2.03,11.14,4.46,2.86,2.42,4.29,5.97,4.29,10.64,0,7.21-3.82,11.94-11.47,14.19,2.86,1.05,4.95,2.63,6.27,4.74,1.32,2.12,2.2,4.99,2.64,8.62.39,3.19.91,5.87,1.57,8.05ZM353.96,81.23c1.93,0,3.25-.03,3.96-.08,2.2-.17,3.96-.73,5.28-1.69,1.32-.96,1.98-2.54,1.98-4.74s-.61-3.78-1.82-4.75c-1.21-.96-2.89-1.53-5.03-1.69-.72-.05-2.04-.08-3.96-.08h-5.78v13.04h5.36Z"/>
  <g>
    <path class="cls-2" d="M485.43,56.64h5.53l7.34,52.98,30.12-52.98h5.53l-33.17,56.94h-6.85l-8.5-56.94Z"/>
    <path class="cls-2" d="M529.16,113.57l12.05-56.94h36.06l-.91,4.21h-30.94l-4.62,22.12h28.8l-.99,4.29h-28.8l-4.62,22.12h31.77l-.91,4.21h-36.89Z"/>
    <path class="cls-2" d="M587.99,84.2l-6.19,29.38h-5.12l12.05-56.94h7.76l18.65,51.99c2.14-10.73,3.68-18.26,4.62-22.61l6.19-29.38h5.03l-11.96,56.94h-7.84l-18.57-51.99c-1.43,7.65-2.97,15.18-4.62,22.61Z"/>
    <path class="cls-2" d="M676.37,98.47c-1.38,4.9-4.07,8.83-8.09,11.8-4.02,2.97-9.13,4.46-15.35,4.46-5.61,0-9.81-1.22-12.58-3.67-2.78-2.45-4.17-5.74-4.17-9.86,0-1.21.05-2.12.17-2.72.16-1.32.47-3.08.91-5.28l7.76-36.56h5.12l-7.67,36.31c-.5,2.09-.8,3.77-.91,5.03-.11.99-.17,1.68-.17,2.06,0,3.25,1.03,5.82,3.1,7.71,2.06,1.9,5.16,2.85,9.28,2.85,4.57,0,8.35-1.16,11.35-3.47,3-2.31,5.07-5.36,6.23-9.16.44-1.32.88-3,1.32-5.03l7.67-36.31h5.12l-7.76,36.56c-.33,1.6-.77,3.36-1.32,5.28Z"/>
    <path class="cls-2" d="M727.57,59.36c2.5,2.59,3.76,6,3.76,10.23,0,1.05-.03,1.82-.08,2.31h-5.36c.05-.38.08-.93.08-1.65,0-3.41-.95-6.04-2.85-7.88-1.9-1.84-4.58-2.76-8.05-2.76s-6.61.89-9.45,2.68c-2.84,1.79-4.58,4.28-5.24,7.47-.22.88-.33,1.82-.33,2.81,0,2.31.89,4.13,2.68,5.45,1.79,1.32,4.75,2.56,8.87,3.71,5.12,1.43,8.91,3.19,11.39,5.28s3.71,4.81,3.71,8.17c0,.99-.14,2.23-.41,3.71-.66,3.08-2.09,5.82-4.29,8.21-2.2,2.39-4.88,4.26-8.05,5.61-3.17,1.35-6.56,2.02-10.19,2.02-5.5,0-9.82-1.26-12.96-3.8-3.13-2.53-4.7-6.16-4.7-10.89,0-.94.03-1.65.08-2.15h5.45c-.17,4.02.94,7.14,3.3,9.37,2.36,2.23,5.64,3.34,9.82,3.34,3.85,0,7.28-1,10.27-3.01,3-2.01,4.86-4.63,5.57-7.88.22-.94.33-1.93.33-2.97,0-2.58-.98-4.63-2.93-6.15-1.95-1.51-5.13-2.85-9.53-4-4.79-1.26-8.36-2.85-10.73-4.74-2.37-1.9-3.55-4.44-3.55-7.63,0-.88.14-2.01.41-3.38.66-3.03,2.06-5.69,4.21-8,2.15-2.31,4.76-4.11,7.84-5.4,3.08-1.29,6.3-1.94,9.65-1.94,5.01,0,8.76,1.29,11.26,3.88Z"/>
  </g>
  <path class="cls-1" d="M502.59,1.06c-3.58,4.95-31.02,54.03-45.45,79.95-1.4,2.51-.71,5.94,1.69,8.44l99.82,104.27-117.31-84.1c-2.81-2.02-6.31-2.21-8.59-.48-23.62,17.95-68.33,52.03-72.73,56.28,3.55-4.91,32.51-51.7,48.39-77.4,1.5-2.44.94-5.87-1.37-8.44L335.34,0l88.9,59.73c2.87,1.93,6.35,2,8.55.16,23.2-19.35,65.44-54.63,69.8-58.83Z"/>
</svg>