<?xml version="1.0" encoding="UTF-8"?>
<svg xmlns="http://www.w3.org/2000/svg" version="1.1" viewBox="0 0 97.8 97.8">
  <defs>
    <style>
      .cls-1 {
        fill: #fff;
      }
    </style>
  </defs>
  <!-- Generator: Adobe Illustrator 28.7.1, SVG Export Plug-In . SVG Version: 1.2.0 Build 142)  -->
  <g>
    <g id="Layer_1">
      <g id="Layer_1-2" data-name="Layer_1">
        <g id="Layer_1-2">
          <g id="Layer_1-2-2" data-name="Layer_1-2">
            <path class="cls-1" d="M60.2,48.8c0,6.3-4.9,11.4-11.4,11.3-7,0-11.3-5.6-11.3-11.4s5-11.2,11.4-11.2,11.3,5.1,11.3,11.3Z"/>
            <path class="cls-1" d="M76.2,31.6c-.5-4.4-4-8.7-8.3-9.5-3.4-.7-6.9-1.1-10.5-1.1-8,0-15.9.1-24,.4-2.6,0-5.1.7-7.2,2.4-3.4,2.6-4.8,6.3-4.9,10.3-.2,4.9-.4,9.7-.5,16,.2,4.2.4,9.7.8,15.4.4,5.1,4.4,9.4,9.5,10.2,2.5.5,5,.7,7.6.7h20.7c2.5,0,5-.2,7.5-.7,4.5-1,7.7-3.8,8.8-8.3.7-3.2,1-6.4,1-9.7.2-8.8.5-17.5-.6-26.3h.1ZM48.6,66.1c-10.3-.2-17.2-8.6-17-17.6.2-10.5,8.6-17.2,17.5-17,10.6.2,17.1,8.6,17.1,17.6-.4,10.5-8.7,17.3-17.6,17ZM67,34.7c-2.1,0-3.9-1.9-3.9-4s1.7-3.9,4-3.9,3.9,1.8,3.9,3.9-2,4-4,4Z"/>
            <path class="cls-1" d="M79.6,0H18.1C8.1,0,0,8.1,0,18.1v61.7c0,10,8.1,18.1,18.1,18.1h61.7c10,0,18.1-8.1,18.1-18.1V18.1c0-10-8.1-18.1-18.1-18.1h-.1ZM82.6,62.3c0,5.2-1.4,10.1-5.1,14-3,3.2-6.7,5.3-11.2,5.8-10.7,1-21.4.7-32.1.4-1.8,0-3.4-.2-5.1-.7-7.7-1.8-13.8-9.4-13.9-17.3,0-8.3-.2-16.6-.2-25s.2-6.3.7-9.4c1-5.1,3.8-9,8.2-11.9,3.3-2,6.9-3,10.7-3h14.1c5.1,0,10.3-.1,15.4,0,8.2.5,15.7,5.8,17.5,14.5.6,2.9.7,5.8.8,8.8v23.8h.1Z"/>
          </g>
        </g>
      </g>
    </g>
  </g>
</svg>