<?xml version="1.0" encoding="UTF-8"?>
<svg xmlns="http://www.w3.org/2000/svg" version="1.1" viewBox="0 0 97.84 97.84">
  <defs>
    <style>
      .cls-1 {
        fill: #f2a241;
      }
    </style>
  </defs>
  <!-- Generator: Adobe Illustrator 28.7.1, SVG Export Plug-In . SVG Version: 1.2.0 Build 142)  -->
  <g>
    <g id="Layer_1">
      <path class="cls-1" d="M35.3,45.09c-2.7.01-5.4.01-8.16.01v-8.75c3.26.09,6.48-.07,9.63.33,3.25.41,4.53,3.91,2.72,6.67-.64.97-1.66,1.33-2.72,1.58-.48.12-.98.16-1.47.16Z"/>
      <path class="cls-1" d="M41.02,52.86c.96,1.88,1.06,3.81-.01,5.69-.84,1.47-2.35,1.98-3.87,2.04-3.3.12-6.61.04-9.99.04v-10.11h1.57c2.65,0,5.3-.02,7.95.01,1.83.03,3.45.57,4.35,2.33Z"/>
      <path class="cls-1" d="M65.75,45.06c-3.47-.16-6.11,2.22-6.24,5.65h11.78c-.07-3.36-2.05-5.48-5.54-5.65ZM65.75,45.06c-3.47-.16-6.11,2.22-6.24,5.65h11.78c-.07-3.36-2.05-5.48-5.54-5.65ZM65.75,45.06c-3.47-.16-6.11,2.22-6.24,5.65h11.78c-.07-3.36-2.05-5.48-5.54-5.65ZM65.75,45.06c-3.47-.16-6.11,2.22-6.24,5.65h11.78c-.07-3.36-2.05-5.48-5.54-5.65ZM74.85,7.8H22.99c-8.39,0-15.19,6.8-15.19,15.19v51.86c0,8.39,6.8,15.19,15.19,15.19h51.86c8.39,0,15.19-6.8,15.19-15.19V22.99c0-8.39-6.8-15.19-15.19-15.19ZM58.1,32.23h14.71v3.45h-14.71v-3.45ZM49.7,57.21c-.44,4.82-3.17,7.45-7.71,8.86-1.68.52-3.52.75-5.29.78-5.63.1-11.27.04-16.9.04-.19,0-.38-.02-.64-.04V30.23c.22-.02.41-.04.59-.04,6.08,0,12.15-.03,18.23.03,2.35.03,4.58.68,6.63,1.84,1.37.78,2.37,1.93,2.79,3.46.81,2.93,1.11,5.86-.79,8.5-.67.93-1.7,1.6-2.59,2.37-.24.21-.56.32-.84.48,1.1.61,2.21,1.06,3.14,1.75,2.88,2.14,3.69,5.19,3.38,8.59ZM67.2,62.03c1.87-.26,3.54-1.09,4.41-2.97.08-.18.36-.37.55-.38,1.96-.02,3.91-.01,5.96-.01-1.2,3.57-3.12,6.48-6.67,7.84-4.76,1.82-9.44,1.53-13.77-1.32-2.83-1.86-4.45-4.6-5.08-7.93-.6-3.13-.44-6.2.68-9.2,2.25-6.04,7.77-8.85,13.59-8.38,2.29.19,4.47.8,6.34,2.19,3.02,2.23,4.64,5.33,5.19,8.99.21,1.41.21,2.85.32,4.44h-19.22c-.17,4.91,3.18,7.36,7.7,6.73ZM65.75,45.06c-3.47-.16-6.11,2.22-6.24,5.65h11.78c-.07-3.36-2.05-5.48-5.54-5.65ZM65.75,45.06c-3.47-.16-6.11,2.22-6.24,5.65h11.78c-.07-3.36-2.05-5.48-5.54-5.65ZM65.75,45.06c-3.47-.16-6.11,2.22-6.24,5.65h11.78c-.07-3.36-2.05-5.48-5.54-5.65ZM65.75,45.06c-3.47-.16-6.11,2.22-6.24,5.65h11.78c-.07-3.36-2.05-5.48-5.54-5.65ZM65.75,45.06c-3.47-.16-6.11,2.22-6.24,5.65h11.78c-.07-3.36-2.05-5.48-5.54-5.65Z"/>
    </g>
  </g>
</svg>