<?xml version="1.0" encoding="UTF-8"?>
<svg xmlns="http://www.w3.org/2000/svg" version="1.1" viewBox="0 0 97.84 97.84">
  <defs>
    <style>
      .cls-1 {
        fill: #f2a241;
      }
    </style>
  </defs>
  <!-- Generator: Adobe Illustrator 28.7.1, SVG Export Plug-In . SVG Version: 1.2.0 Build 142)  -->
  <g>
    <g id="Layer_1">
      <path class="cls-1" d="M70.41,44.45c.05.45.1.74.1,1.02.01,5.38.01,10.77,0,16.15,0,1.68-.56,2.25-2.23,2.25H29.51c-1.62,0-2.21-.57-2.21-2.19-.01-5.41-.01-10.82,0-16.23,0-.26.05-.53.1-1.01.43.3.7.48.95.68,4.37,3.59,8.74,7.18,13.09,10.79,2.13,1.76,4.56,2.86,7.31,2.92,2.57.04,4.96-.81,6.97-2.44,4.59-3.72,9.13-7.49,13.7-11.23.27-.22.56-.4.99-.71Z"/>
      <path class="cls-1" d="M70.54,36.47c.04,1.03-.26,1.71-1.08,2.39-5.61,4.56-11.15,9.19-16.74,13.77-2.15,1.77-5.5,1.7-7.66-.08-5.71-4.69-11.42-9.39-17.13-14.08-.65-.54-.89-2.16-.48-3.31.27-.78.88-1.13,1.99-1.13,6.49-.01,12.98-.01,19.46-.01h19.13c1.91,0,2.43.57,2.51,2.45Z"/>
      <path class="cls-1" d="M74.85,7.8H22.99c-8.39,0-15.19,6.8-15.19,15.19v51.86c0,8.39,6.8,15.19,15.19,15.19h51.86c8.39,0,15.19-6.8,15.19-15.19V22.99c0-8.39-6.8-15.19-15.19-15.19ZM75.39,61.76c-.01,4.15-2.91,7.01-7.06,7.02H29.56c-4.28,0-7.11-2.83-7.11-7.1-.01-8.51-.01-17.01,0-25.51,0-3.45,1.58-5.7,4.84-6.76.79-.26,1.68-.33,2.52-.33,12.73-.02,25.46-.02,38.19-.01,3.39,0,5.95,1.56,6.89,4.28.32.94.47,1.99.48,2.99.04,8.48.03,16.95.02,25.42Z"/>
    </g>
  </g>
</svg>