<?xml version="1.0" encoding="UTF-8"?>
<svg xmlns="http://www.w3.org/2000/svg" version="1.1" viewBox="0 0 97.8 97.8">
  <defs>
    <style>
      .cls-1 {
        fill: #fff;
      }
    </style>
  </defs>
  <!-- Generator: Adobe Illustrator 28.7.1, SVG Export Plug-In . SVG Version: 1.2.0 Build 142)  -->
  <g>
    <g id="Layer_1">
      <g id="Layer_1-2" data-name="Layer_1">
        <g id="Layer_1-2">
          <g id="Layer_1-2-2" data-name="Layer_1-2">
            <path class="cls-1" d="M74.4,43.6v20.4c0,2-.7,2.6-2.6,2.6H25.8c-1.9,0-2.6-.7-2.6-2.6v-19.3c0-.4,0-.6.1-1.2.5.4.8.6,1.2.8,5.2,4.3,10.3,8.6,15.6,12.8,2.5,2.1,5.5,3.4,8.7,3.4s5.9-1,8.3-2.9c5.5-4.4,10.8-8.9,16.3-13.3.4-.2.7-.5,1.2-.8h-.1Z"/>
            <path class="cls-1" d="M74.5,34.1c0,1.2-.4,2-1.3,2.9-6.7,5.5-13.3,10.9-19.8,16.4-2.6,2.1-6.5,2-9.2,0-6.8-5.6-13.5-11.2-20.3-16.8-.7-.6-1.1-2.6-.6-3.9.4-1,1.1-1.3,2.4-1.3h45.9c2.3,0,2.9.7,3,3v-.2Z"/>
            <path class="cls-1" d="M79.6,0H18.1C8.1,0,0,8.1,0,18.1v61.7c0,10,8.1,18.1,18.1,18.1h61.7c10,0,18.1-8.1,18.1-18.1V18.1c0-10-8.1-18.1-18.1-18.1h-.1ZM80.3,64.2c0,4.9-3.4,8.3-8.4,8.3H25.9c-5.1,0-8.4-3.3-8.4-8.4v-30.3c0-4.2,1.9-6.8,5.7-8.1,1-.4,2-.4,3-.4h45.4c4,0,7,1.9,8.2,5.1.4,1.1.6,2.4.6,3.6,0,0,0,30.2,0,30.2Z"/>
          </g>
        </g>
      </g>
    </g>
  </g>
</svg>