<?xml version="1.0" encoding="UTF-8"?>
<svg xmlns="http://www.w3.org/2000/svg" version="1.1" viewBox="0 0 97.84 97.84">
  <defs>
    <style>
      .cls-1 {
        fill: #f2a241;
      }
    </style>
  </defs>
  <!-- Generator: Adobe Illustrator 28.7.1, SVG Export Plug-In . SVG Version: 1.2.0 Build 142)  -->
  <g>
    <g id="Layer_1">
      <path class="cls-1" d="M74.85,7.8H22.99c-8.39,0-15.19,6.8-15.19,15.19v51.86c0,8.39,6.8,15.19,15.19,15.19h51.86c8.39,0,15.19-6.8,15.19-15.19V22.99c0-8.39-6.8-15.19-15.19-15.19ZM37.79,71.03c-2.57-.03-5.13-.04-7.7.01-.78,0-1.03-.2-1.03-1.01.04-4.85.02-9.71.02-14.56s.02-9.55-.01-14.32c-.01-.83.22-1.11,1.07-1.09,2.54.05,5.08.04,7.61,0,.74-.01.94.26.94.97-.01,9.71-.02,19.42,0,29.14,0,.71-.25.87-.91.86ZM33.94,35.8c-3,0-5.52-2.54-5.54-5.56-.01-3.04,2.45-5.5,5.52-5.52,3.05-.02,5.51,2.43,5.53,5.5.02,3.01-2.51,5.58-5.51,5.58ZM73.64,71.04c-2.53-.06-5.07-.04-7.61-.01-.66.01-.93-.15-.92-.86.03-5.11.07-10.21.01-15.32-.01-1.33-.22-2.7-.56-3.99-.52-2.04-2.36-3.18-4.62-3.08-3.16.15-4.82,1.61-5.38,4.87-.19,1.11-.28,2.25-.29,3.37-.03,4.69-.01,9.39-.01,14.08v.85c-.27.03-.45.07-.63.07-2.71,0-5.41-.02-8.12.01-.6.01-.82-.17-.82-.79,0-9.77,0-19.55,0-29.32,0-.66.27-.85.89-.85,2.54.02,5.07.02,7.61,0,.57-.01.79.18.77.76-.04,1.07-.01,2.14-.01,3.21.09.05.18.09.26.14.11-.16.22-.31.33-.47,2.15-3.1,5.2-4.44,8.88-4.33,1.49.04,3.01.32,4.47.69,3.54.91,5.18,3.55,6.06,6.87.7,2.65.71,5.35.73,8.05.02,4.99,0,9.99.02,14.99.01.82-.19,1.08-1.06,1.06Z"/>
    </g>
  </g>
</svg>