<?xml version="1.0" encoding="UTF-8"?>
<svg xmlns="http://www.w3.org/2000/svg" version="1.1" viewBox="0 0 97.8 97.8">
  <defs>
    <style>
      .cls-1 {
        fill: #fff;
      }
    </style>
  </defs>
  <!-- Generator: Adobe Illustrator 28.7.1, SVG Export Plug-In . SVG Version: 1.2.0 Build 142)  -->
  <g>
    <g id="Layer_1">
      <g id="Layer_1-2" data-name="Layer_1">
        <g id="Layer_1-2">
          <g id="Layer_1-2-2" data-name="Layer_1-2">
            <path class="cls-1" d="M32.7,44.3h-9.7v-10.5c3.9,0,7.7,0,11.4.4,3.8.5,5.3,4.6,3.2,8-.7,1.2-2,1.5-3.2,1.9-.6,0-1.2.2-1.8.2h.1Z"/>
            <path class="cls-1" d="M39.5,53.6c1.2,2.3,1.3,4.5,0,6.8-1,1.8-2.7,2.4-4.6,2.4h-11.9v-12h11.3c2.1,0,4.2.7,5.1,2.7h.1Z"/>
            <path class="cls-1" d="M68.9,44.3c-4.2-.2-7.2,2.6-7.4,6.8h14c0-4-2.5-6.5-6.5-6.8h-.1ZM68.9,44.3c-4.2-.2-7.2,2.6-7.4,6.8h14c0-4-2.5-6.5-6.5-6.8h-.1ZM68.9,44.3c-4.2-.2-7.2,2.6-7.4,6.8h14c0-4-2.5-6.5-6.5-6.8h-.1ZM68.9,44.3c-4.2-.2-7.2,2.6-7.4,6.8h14c0-4-2.5-6.5-6.5-6.8h-.1ZM79.6,0H18.1C8.1,0,0,8.1,0,18.1v61.7c0,10,8.1,18.1,18.1,18.1h61.7c10,0,18.1-8.1,18.1-18.1V18.1c0-10-8.1-18.1-18.1-18.1h-.1ZM59.8,29h17.5v4.2h-17.5s0-4.2,0-4.2ZM49.8,58.7c-.5,5.7-3.8,8.8-9.2,10.6-2,.6-4.2,1-6.3,1H14.3c-6.7,0-.5,0-.7,0V26.6h22.3c2.7,0,5.5.8,7.8,2.1,1.7,1,2.9,2.3,3.3,4.2,1,3.4,1.3,7-1,10.1-.8,1.1-2,1.9-3.1,2.9-.2.2-.7.4-1,.6,1.3.7,2.6,1.3,3.7,2.1,3.4,2.5,4.4,6.2,4,10.2h0ZM70.6,64.4c2.3-.4,4.2-1.3,5.2-3.6,0-.2.5-.5.7-.5h7.1c-1.4,4.3-3.7,7.7-8,9.3-5.7,2.1-11.2,1.8-16.4-1.5-3.3-2.3-5.3-5.5-6.1-9.4-.7-3.7-.5-7.4.8-10.9,2.6-7.1,9.3-10.6,16.2-10,2.7.2,5.3,1,7.5,2.6,3.6,2.6,5.5,6.3,6.2,10.7.2,1.7.2,3.3.4,5.2h-22.8c-.2,5.8,3.8,8.8,9.2,8h0ZM68.9,44.3c-4.2-.2-7.2,2.6-7.4,6.8h14c0-4-2.5-6.5-6.5-6.8h-.1ZM68.9,44.3c-4.2-.2-7.2,2.6-7.4,6.8h14c0-4-2.5-6.5-6.5-6.8h-.1ZM68.9,44.3c-4.2-.2-7.2,2.6-7.4,6.8h14c0-4-2.5-6.5-6.5-6.8h-.1ZM68.9,44.3c-4.2-.2-7.2,2.6-7.4,6.8h14c0-4-2.5-6.5-6.5-6.8h-.1ZM68.9,44.3c-4.2-.2-7.2,2.6-7.4,6.8h14c0-4-2.5-6.5-6.5-6.8h-.1Z"/>
          </g>
        </g>
      </g>
    </g>
  </g>
</svg>