<?xml version="1.0" encoding="UTF-8"?>
<svg xmlns="http://www.w3.org/2000/svg" version="1.1" viewBox="0 0 97.8 97.8">
  <defs>
    <style>
      .cls-1 {
        fill: #fff;
      }
    </style>
  </defs>
  <!-- Generator: Adobe Illustrator 28.7.1, SVG Export Plug-In . SVG Version: 1.2.0 Build 142)  -->
  <g>
    <g id="Layer_1">
      <g id="Layer_1-2" data-name="Layer_1">
        <g id="Layer_1-2">
          <g id="Layer_1-2-2" data-name="Layer_1-2">
            <path class="cls-1" d="M79.6,0H18.1C8.1,0,0,8.1,0,18.1v61.7c0,10,8.1,18.1,18.1,18.1h61.7c10,0,18.1-8.1,18.1-18.1V18.1c0-10-8.1-18.1-18.1-18.1h-.1ZM35.7,75.1h-9.2c-1,0-1.2-.2-1.2-1.2v-34.3c0-1,.2-1.3,1.3-1.3h9c.8,0,1.1.4,1.1,1.2v34.6c0,.8-.2,1.1-1.1,1.1h0ZM31,33.3c-3.6,0-6.5-3-6.5-6.7s3-6.5,6.5-6.5,6.5,2.9,6.5,6.5-3,6.7-6.5,6.7ZM78.2,75.1h-9c-.8,0-1.1-.2-1.1-1.1v-18.2c0-1.5-.2-3.2-.7-4.8-.6-2.4-2.9-3.8-5.5-3.7-3.8.2-5.7,1.9-6.4,5.8-.2,1.3-.4,2.6-.4,4v17.7h-10.3c-.7,0-1-.2-1-1v-34.8c0-.8.4-1,1.1-1h9c.7,0,1,.2,1,1v3.8h.4c0-.2.2-.4.4-.6,2.6-3.7,6.2-5.2,10.6-5.1,1.8,0,3.6.4,5.3.8,4.2,1.1,6.2,4.2,7.2,8.2.8,3.2.8,6.3.8,9.5v17.8c0,1-.2,1.3-1.3,1.3h-.1Z"/>
          </g>
        </g>
      </g>
    </g>
  </g>
</svg>