<?xml version="1.0" encoding="UTF-8"?>
<svg xmlns="http://www.w3.org/2000/svg" version="1.1" viewBox="0 0 612.6 612">
  <defs>
    <style>
      .cls-1 {
        fill: #ff9e1c;
      }
    </style>
  </defs>
  <!-- Generator: Adobe Illustrator 28.7.1, SVG Export Plug-In . SVG Version: 1.2.0 Build 142)  -->
  <g>
    <g id="Layer_1">
      <g>
        <path class="cls-1" d="M537.2,540.5c-.5,0-1-.2-1.4-.5-72.9-48.6-200.1-130.3-233.5-131.7-.5,0-1,0-1.5,0-34,0-121.9,49.6-171.3,79.1-.4.3-.9.4-1.3.4-.9,0-1.8-.5-2.3-1.4-.3-.6-.6-1.5,0-2.5,30.2-50.4,80.5-139.9,79.1-172.8-.7-15.4-17.7-50.8-52-108.3-27-45.2-58.3-93-79.7-125.2-.6-.9-.6-1.7-.2-2.6.5-.9,1.4-1.5,2.3-1.5s1,.2,1.4.5c72.9,48.6,200.1,130.3,233.5,131.8.5,0,1,0,1.4,0,34,0,121.9-49.6,171.3-79.1.4-.3.9-.4,1.3-.4.9,0,1.8.5,2.3,1.4.3.6.6,1.5,0,2.5-30.2,50.4-80.5,139.9-79.1,172.8.7,15.4,17.7,50.8,52,108.3,27,45.2,58.3,93,79.7,125.2.6.9.6,1.7.2,2.6-.5.9-1.4,1.5-2.3,1.5Z"/>
        <path class="cls-1" d="M78.8,79.5c32.1,21.4,78,51.2,121.5,77.2,86.1,51.5,104,52.3,109.9,52.5.5,0,1.1,0,1.6,0,16.1,0,43.9-10,84.8-30.6,31-15.6,62.9-33.9,85.2-47.2-13.5,22.6-32.1,55-47.8,86.4-20.8,41.6-30.6,69.4-29.9,85.1.3,5.9,1,23.8,52.5,109.9,26,43.5,55.9,89.4,77.2,121.5-32.1-21.3-78-51.2-121.5-77.2-86.1-51.5-104-52.3-109.9-52.5-.5,0-1.1,0-1.6,0-16.1,0-43.9,10-84.8,30.6-31,15.6-62.9,33.9-85.1,47.2,13.5-22.6,32.1-55,47.8-86.4,20.8-41.6,30.6-69.4,29.9-85.1-.3-5.9-1-23.8-52.5-109.9-26-43.5-55.9-89.4-77.2-121.5M75.4,70c-4.4,0-8,5.1-5,9.5,38.9,58.3,129.7,197.9,131.2,231.7,1.4,32.9-53,128-78.6,170.8-2.6,4.4.9,9.2,5.2,9.2s2.1-.3,3.1-.9c42.3-25.3,135.5-78.6,169.5-78.6.4,0,.9,0,1.3,0,33.8,1.5,173.3,92.3,231.7,131.2,1.1.7,2.3,1.1,3.4,1.1,4.4,0,8-5.1,5-9.5-38.9-58.3-129.7-197.9-131.2-231.7-1.4-32.9,53-128,78.6-170.8,2.6-4.4-.9-9.2-5.2-9.2s-2.1.3-3.1.9c-42.3,25.3-135.5,78.6-169.5,78.6s-.9,0-1.3,0c-33.8-1.5-173.3-92.3-231.7-131.2-1.1-.7-2.3-1.1-3.4-1.1h0Z"/>
      </g>
    </g>
  </g>
</svg>